<?xml version="1.0" encoding="UTF-8"?>
<svg width="752pt" height="752pt" version="1.1" viewBox="0 0 752 752" xmlns="http://www.w3.org/2000/svg">
 <g>
  <path d="m380.26 303.07c26.52 0 47.832-21.312 47.832-47.832s-21.312-47.832-47.832-47.832-47.832 21.312-47.832 47.832c0.003906 26.52 21.312 47.832 47.832 47.832z"/>
  <path d="m563.54 394v-198.9c0-17.051-13.734-30.781-30.781-30.781h-354.24c-17.051 0-30.781 13.734-30.781 30.781v267.57c0 17.051 13.734 30.781 30.781 30.781h209.8c0.94531 6.1562 2.3672 12.312 4.2617 18.469 14.68 44.988 55.883 75.301 103.71 75.301 60.145 0 108.92-48.777 108.92-108.92-0.94922-32.68-15.629-63.461-41.676-84.301zm-392.12 69.145v-268.05c0-3.7891 3.3164-7.1055 7.1055-7.1055h354.24c3.7891 0 7.1055 3.3164 7.1055 7.1055v184.22c-13.734-6.1562-28.887-9.4727-44.043-9.4727-2.3672 0-4.7344 0-7.1055 0.47266l-42.621-41.203c-10.891-10.891-28.414-11.367-40.727-1.8945l-27.469 21.785-45.938-50.199c-5.6836-6.1562-13.734-9.9453-22.258-9.9453h-0.47266c-8.5234 0-16.574 3.3164-22.258 9.4727l-97.09 102.3c-3.3164 3.3164-4.2617 8.5234-2.3672 12.785 1.8945 4.2617 6.1562 7.1055 10.891 7.1055h205.54c-8.9961 14.68-15.156 31.258-16.574 49.254l-208.85-0.003907c-4.2617 0.47266-7.1055-2.8398-7.1055-6.6289zm324.4 100.87c-36.938 0-69.617-23.68-80.98-59.199-2.3672-7.1055-3.3164-14.68-3.7891-21.785v-0.94531c0-0.94531 0-1.4219-0.47266-2.3672v-0.47266c0-46.883 38.359-85.246 85.246-85.246 18.941 0 36.938 6.1562 52.094 17.523 20.836 16.102 33.152 40.727 33.152 67.25-0.47656 46.883-38.363 85.242-85.25 85.242z"/>
  <path d="m539.39 466.93h-32.203v-32.203c0-6.6289-5.2109-11.84-11.84-11.84s-11.84 5.2109-11.84 11.84v32.203h-31.73c-6.6289 0-11.84 5.2109-11.84 11.84 0 6.6289 5.2109 11.84 11.84 11.84h32.203v32.203c0 6.6289 5.2109 11.84 11.84 11.84s11.84-5.2109 11.84-11.84v-32.203h32.203c6.6289 0 11.84-5.2109 11.84-11.84 0-6.6328-5.6836-11.84-12.312-11.84z"/>
 </g>
</svg>
