<?xml version='1.0' encoding='utf-8'?>
<svg xmlns="http://www.w3.org/2000/svg" width="91.44mm" height="91.44mm" version="1.1" style="shape-rendering:geometricPrecision; text-rendering:geometricPrecision; image-rendering:optimizeQuality; fill-rule:evenodd; clip-rule:evenodd" viewBox="0 0 184.23 184.23"> <defs> <style type="text/css">  .fil0 {fill:#F0F0F0} .fil1 {fill:#011627;fill-rule:nonzero}  </style> </defs> <g id="Camada_x0020_1"> <metadata id="CorelCorpID_0Corel-Layer"/> <polygon class="fil0" points="-0,184.23 184.23,184.23 184.23,0 -0,0 "/> <path class="fil1" d="M68.24 50.11l47.76 0c4.99,0 9.52,2.04 12.8,5.32 3.28,3.28 5.32,7.82 5.32,12.8l0 47.76c0,4.99 -2.04,9.52 -5.32,12.8 -3.28,3.28 -7.82,5.32 -12.8,5.32l-47.76 0c-4.99,0 -9.52,-2.04 -12.8,-5.32 -3.28,-3.28 -5.32,-7.82 -5.32,-12.8l0 -47.76c0,-4.99 2.04,-9.52 5.32,-12.8 3.28,-3.28 7.82,-5.32 12.8,-5.32zm9.81 43.71c-0.94,0 -1.71,-0.76 -1.71,-1.71 0,-0.94 0.76,-1.71 1.71,-1.71l12.37 0 0 -12.37c0,-0.94 0.76,-1.71 1.71,-1.71 0.94,0 1.71,0.76 1.71,1.71l0 12.37 12.37 0c0.94,0 1.71,0.76 1.71,1.71 0,0.94 -0.76,1.71 -1.71,1.71l-12.37 0 0 12.37c0,0.94 -0.76,1.71 -1.71,1.71 -0.94,0 -1.71,-0.76 -1.71,-1.71l0 -12.37 -12.37 0zm37.95 -40.3l-47.76 0c-4.04,0 -7.72,1.66 -10.39,4.32 -2.67,2.67 -4.32,6.34 -4.32,10.39l0 47.76c0,4.04 1.66,7.72 4.32,10.39 2.67,2.67 6.35,4.32 10.39,4.32l47.76 0c4.04,0 7.72,-1.66 10.39,-4.32 2.67,-2.67 4.32,-6.35 4.32,-10.39l0 -47.76c0,-4.05 -1.66,-7.72 -4.32,-10.39 -2.67,-2.67 -6.35,-4.32 -10.39,-4.32z"/> </g> </svg>